<?xml version="1.0" encoding="UTF-8"?>
<svg xmlns="http://www.w3.org/2000/svg" viewBox="0 0 175 72">
  <defs>
    <style>
      .cls-1 {
        stroke-width: .55px;
      }

      .cls-1, .cls-2 {
        fill: #fff;
        stroke: #0a1f41;
        stroke-miterlimit: 10;
      }

      .cls-3 {
        fill: #0a1f41;
      }

      .cls-2 {
        stroke-width: .63px;
      }
    </style>
  </defs>
  <g id="Layer_2" data-name="Layer 2">
    <path class="cls-3" d="M172.78,46.71c-.07-1.1-.21-3.38-1.83-5.29-1.28-1.49-3.16-2.35-5.16-2.35-.96,0-1.88,.2-2.74,.58-.28,.12-.53,.26-.77,.41-1-.34-2.07-.52-3.14-.52-.54,0-1.08,.05-1.6,.13-1.34,.23-2.62,.73-3.79,1.45-1.27-.89-2.75-1.49-4.31-1.7-.41-.05-.83-.08-1.24-.08-.99,0-1.97,.15-2.9,.44-.43-.25-.94-.47-1.54-.63-.02-.1-.02-.2-.04-.3-.7-3.21-3.46-5.45-6.73-5.45-1.5,0-2.88,.47-4.01,1.31-.22-.03-.44-.07-.67-.08h-.38c-1.28-.01-3.99,.38-5.25,3.42-.32-.65-.78-1.31-1.43-1.89-1.1-.97-2.53-1.5-4.04-1.5-1.4,0-2.78,.46-3.88,1.29-1.08,.81-1.86,1.86-2.34,3.13-2,0-3.94,.53-5.68,1.45-.76-.41-1.56-.75-2.4-.99-1.02-.28-2.08-.43-3.15-.43-1.25,0-2.48,.2-3.66,.57-.64-.2-1.32-.32-2.04-.32-1.63,0-3.21,.55-4.46,1.55-.61,.48-1.1,1.02-1.51,1.58-.07-.08-.14-.15-.21-.23-.44-.47-.96-.89-1.53-1.25-.64-.67-1.42-1.22-2.33-1.54-.61-2.69-2.85-4.89-5.72-5.34-.36-.06-.72-.08-1.07-.08-2.73,0-5.31,1.59-6.56,4.05-.18,.35-.3,.7-.4,1.04-.03,0-.05,0-.08,0-1.85,.31-3.43,1.46-4.44,3.07-.16-.2-.32-.4-.5-.58-1.29-1.36-3.18-2.17-5.06-2.17-.52,0-1.02,.07-1.51,.19-.6-.25-1.21-.46-1.84-.6-.66-.15-1.35-.23-2.03-.24-.98-2.49-3.13-4.47-5.73-5.05-.55-.12-1.1-.18-1.62-.18-1.7,0-3.26,.65-4.39,1.83-.57,.6-.97,1.26-1.25,1.94-1.14-1.78-2.9-3.13-4.97-3.59-.55-.12-1.1-.18-1.62-.18-1.7,0-3.26,.65-4.39,1.83-1.06,1.11-1.55,2.43-1.76,3.72-.96,.07-1.91,.25-2.83,.54-.77-.33-1.6-.52-2.49-.52-1.69,0-3.38,.64-4.7,1.73-.15-.13-.31-.26-.48-.38-1.14-.82-2.51-1.25-3.95-1.25-1.75,0-3.48,.64-4.84,1.76-1.3-1.41-3.09-2.23-4.95-2.23-.55,0-1.09,.07-1.61,.21-2.55,.69-4.47,3.04-4.78,5.84-.2,1.79,.26,3.33,.57,4.35l1.92,6.47c.48,1.63,1.15,3.86,2.87,5.73,1.56,1.7,3.81,2.72,6.03,2.72,1.27,0,2.51-.33,3.58-.97,.38-.22,.71-.47,1.02-.73,.03,.03,.06,.06,.1,.09,1.28,1.2,2.99,1.87,4.81,1.87,.54,0,1.08-.06,1.61-.18,1.15-.26,2.22-.82,3.16-1.58,1.48,.72,3.09,1.12,4.71,1.13h.07c1.41,0,2.73-.29,3.92-.71,.68,.42,1.41,.73,2.2,.89,.42,.09,.86,.13,1.29,.13,1.17,0,2.31-.31,3.31-.9,1.16,.43,2.39,.66,3.65,.66h0c.22,0,.43,0,.66-.02,.66-.04,1.31-.17,1.95-.34,.44,.2,.9,.37,1.38,.47,.42,.09,.86,.13,1.29,.13,1.17,0,2.3-.31,3.31-.9,1.16,.43,2.39,.66,3.65,.66h0c.22,0,.43,0,.66-.02,1.46-.1,2.88-.53,4.17-1.21,1.39,.69,2.91,1.08,4.5,1.1,1.01,0,2.03-.16,3.06-.47,.37,.2,.77,.37,1.19,.49,.56,.16,1.14,.24,1.72,.24,1.65,0,3.22-.66,4.46-1.79,1.51,.92,3.23,1.43,4.97,1.43,.47,0,.95-.04,1.42-.11,.89-.15,1.74-.44,2.51-.84,1.33,.77,2.81,1.21,4.31,1.21h0c.67,0,1.34-.09,1.98-.26,.99-.26,1.94-.73,2.79-1.36,1.66,.96,3.53,1.5,5.42,1.51h.07c2.38,0,4.48-.8,6.18-1.71,1.51,.87,3.2,1.42,4.97,1.6,.4,.04,.81,.06,1.21,.06,1.15,0,2.28-.16,3.37-.46,.91,.44,1.91,.7,2.95,.7,1.46,0,2.84-.46,3.94-1.3,.15,.09,.29,.17,.44,.25,1.35,.72,2.88,1.09,4.43,1.09,.76,0,1.52-.09,2.25-.27,.3-.07,.58-.16,.86-.26,.04,0,.07,0,.11,0,.48,0,.95-.06,1.41-.17,.76,.32,1.58,.51,2.42,.51,.9,0,1.77-.19,2.58-.53,.78,.19,1.45,.21,1.84,.22h.41c1.95,0,3.53-.58,4.72-1.75,.04-.03,.07-.07,.1-.1,.71,.83,1.6,1.46,2.59,1.86,.04,.24,.06,.48,.13,.71,.45,1.57,1.42,2.94,2.96,4.17,2.36,1.89,5.24,2.93,8.11,2.95h.06c3.25,0,6.33-1.32,8.45-3.61,2.76-2.99,3.35-6.88,3.57-10.3,.22-3.56,.23-7.16,.01-10.72Z"/>
  </g>
  <g id="Layer_1" data-name="Layer 1">
    <path class="cls-2" d="M120.03,39.6c.65-.49,1.64-.55,2.24-.02,.6,.53,.67,1.43,.7,2.24,.06,1.85,.12,3.7,.18,5.55,.02,.51,.06,1.07,.44,1.41,.42,.37,1.09,.29,1.55-.03s.75-.81,1.05-1.28c.96-1.53,2.22-3.07,3.99-3.41,.77-.15,1.71,.04,2.04,.75,.27,.56,.04,1.23-.23,1.79-.52,1.04-1.24,1.98-2.1,2.75-.39,.35-.81,.67-1.14,1.07s-.56,.93-.48,1.45c.09,.6,.57,1.06,1.01,1.46,.81,.74,1.62,1.49,2.44,2.23,.38,.35,.77,.7,1.03,1.15s.39,1,.22,1.48c-.23,.65-.92,1.02-1.59,1.18-1.16,.29-2.43,.13-3.49-.43-1.05-.56-1.88-1.48-2.49-2.5s-1.04-2.14-1.46-3.26c-.31,.41-.52,.89-.61,1.4-.12,.71,.01,1.44,.05,2.16s-.04,1.5-.49,2.06c-.69,.86-2.13,.86-2.96,.13-.96-.84-1.09-2.27-1.12-3.54-.06-2.51,0-5.02,.17-7.52,.12-1.8-.04-3.47-.06-5.25-.01-1.1,.15-2.31,1.1-3.02Z"/>
    <path class="cls-2" d="M143.25,43.91c.18,.3,.09,.67,.06,1.02s.08,.78,.42,.85c.3,.07,.56-.19,.78-.4,1.13-1.12,2.78-1.68,4.36-1.47s3.03,1.17,3.83,2.54c.69,1.19,.89,2.59,1.07,3.95,.17,1.24,.33,2.48,.5,3.71,.16,1.18,.31,2.41-.1,3.52s-1.57,2.05-2.72,1.78c-.85-.2-1.46-.98-1.73-1.81s-.27-1.72-.33-2.59c-.11-1.63-.44-3.24-.98-4.78-.19-.53-.41-1.07-.8-1.49s-.97-.68-1.52-.55c-.46,.11-.83,.48-1.04,.91s-.3,.9-.37,1.37c-.32,2.06-.5,4.14-.53,6.23,0,.65-.04,1.38-.5,1.83-.47,.46-1.2,.47-1.85,.45-.53-.01-1.11-.04-1.52-.39-.38-.32-.52-.83-.64-1.31-.63-2.66-.99-5.37-1.08-8.1-.04-1.27-.11-2.63,.07-3.89,.11-.77,.42-1.34,1.2-1.57,.71-.21,2.97-.61,3.44,.17Z"/>
    <path class="cls-2" d="M64.31,46.83c-.98-1.63-2.58-2.92-4.43-3.33-1.85-.41-3.94,.14-5.21,1.56,.16-1.06,.31-2.13,.21-3.19,0-1.64-1.17-3.3-2.78-3.66-3.02-.67-2.37,3.23-2.37,5.08,.01,3.77,.02,7.54,.03,11.31,0,1,0,2.01,.34,2.95,.34,.94,1.07,1.79,2.04,2,1.37,.28,2.82-1.08,2.61-2.46,1.2,1.51,3.16,2.37,5.08,2.25,1.92-.12,3.75-1.24,4.75-2.88,.75-1.24,1.03-2.72,1.05-4.17,.03-1.9-.37-3.83-1.35-5.46Zm-6.9,7.24c-1.24-.01-2.47-.89-2.71-2.1-.46-2.29,2.86-5.55,4.92-3.55,2.02,1.97,.69,5.68-2.2,5.65Z"/>
    <path class="cls-2" d="M103.8,52.09c1.22,.03,2.44,.06,3.66,.09,1,.03,2.13,0,2.81-.73,.66-.71,.63-1.83,.35-2.76-.68-2.29-2.62-4.14-4.92-4.78-2.3-.64-4.88-.08-6.76,1.4s-3.01,3.83-3.09,6.21c-.06,1.92,.55,3.86,1.79,5.33s3.1,2.4,5.02,2.42c2.1,.01,4.06-1.03,5.8-2.21,.78-.53,1.62-1.29,1.48-2.22-.13-.85-1.11-1.37-1.97-1.3-1.88,.15-3.21,2.04-5.25,1.6-.96-.21-1.79-1.3-1.34-2.18,.41-.81,1.51-.89,2.42-.87Zm-2.81-1.91c-1.84-.84,1.52-2.99,2.5-2.99,.65,0,1.32,.23,1.73,.73,.41,.5,.48,1.3,.06,1.79-.43,.49-1.16,.55-1.81,.57-.49,.01-.99,.03-1.48,.04-.34,0-.69,.02-1-.13Z"/>
    <path class="cls-2" d="M29.37,44.79c.29,.67,.11,1.45-.07,2.16-.71,2.81-1.42,5.61-2.13,8.42-.27,1.08-.56,2.19-1.22,3.08-.49,.67-1.2,1.2-2.01,1.38s-1.72,0-2.32-.58c-.52-.49-.78-1.2-1.02-1.88-.75-2.14-1.41-6.48-2.24-6.43-.95,.06-1.45,2.67-1.55,4.22-.1,1.55-.37,3.34-1.7,4.13-1.27,.75-2.99,.17-3.99-.91s-1.45-2.55-1.87-3.97c-.64-2.16-1.28-4.31-1.93-6.47-.25-.84-.5-1.7-.41-2.57s.63-1.75,1.47-1.98c.86-.23,1.79,.29,2.3,1.02s.7,1.64,.88,2.52c.35,1.71,.69,3.42,1.04,5.13,.09,.46,.26,1,.71,1.13,.63,.18,1.1-.6,1.23-1.25,.26-1.25,.25-2.54,.42-3.8s.57-2.56,1.48-3.45,2.45-1.23,3.49-.49c.93,.67,1.19,1.92,1.37,3.05,.24,1.48,.15,3.96,1.15,5.14,.54,.64,.84,.54,1.15-.19,.96-2.26,.35-5.03,1.73-7.18,.83-1.3,3.23-2.09,4.02-.26Z"/>
    <path class="cls-2" d="M62.09,50.45c.02,2.04,.46,4.12,1.59,5.81s3.03,2.94,5.07,2.97c1.63,.02,3.18-.71,4.52-1.64-.26,.74,.29,1.61,1.04,1.83s1.6-.13,2.11-.72c.78-.9,.88-2.18,.94-3.37,.11-2.33,.23-4.66,.34-7,.05-1.05,.1-2.14-.31-3.1s-1.41-1.77-2.44-1.6c-1.12,.19-1.79,1.42-1.84,2.56s.34,2.24,.52,3.36c.22,1.38,.1,2.88-.65,4.06s-2.25,1.94-3.6,1.57c-.89-.25-1.61-.95-2.02-1.78s-.54-1.77-.54-2.7c0-1.02,.18-2.04,.15-3.07s-.28-2.1-.99-2.84c-.84-.88-2.61-1.18-3.2,.08-.71,1.52-.71,3.93-.69,5.58Z"/>
    <path class="cls-2" d="M86.89,52.75c.44,1.64,.91,3.33,1.95,4.67s2.79,2.28,4.44,1.85c1.01-.27,1.85-1.02,2.43-1.89s.94-1.87,1.3-2.85c.85-2.35,1.7-4.7,2.55-7.05,.32-.88,.63-1.9,.17-2.72-.62-1.1-2.33-1.09-3.31-.3s-1.43,2.05-1.83,3.25c-.57,1.72-1.14,3.44-1.7,5.15-.09,.29-.21,.6-.48,.74-.28,.15-.65,.03-.88-.19s-.35-.53-.45-.84c-.4-1.22-.57-2.51-.86-3.76s-.75-2.51-1.63-3.45c-1.03-1.11-3.98-2.05-3.57,.43,.39,2.33,1.26,4.67,1.88,6.95Z"/>
    <path class="cls-2" d="M119.89,50.04c.81-.1,1.63-.66,1.77-1.47,.1-.57-.16-1.15-.47-1.64-1.25-1.97-3.53-3.2-5.86-3.31-2.92-.13-5.85,1.54-7.22,4.12s-1.12,5.94,.62,8.29c1.31,1.76,3.38,2.93,5.57,3.14s4.44-.51,6.1-1.94c.74-.63,1.4-1.58,1.13-2.51-.29-.98-1.49-1.41-2.5-1.26s-1.9,.72-2.84,1.11-2.07,.62-2.95,.09c-1.06-.63-1.3-2.04-1.32-3.27,0-.87,.05-1.78,.51-2.52,.53-.84,1.57-1.33,2.56-1.2,1.1,.15,1.55,.94,2.26,1.65,.65,.64,1.75,.83,2.63,.71Z"/>
    <path class="cls-2" d="M130.91,55.74c.15,.86,.34,1.74,.89,2.42s1.55,1.06,2.31,.65c.74-.41,.96-1.35,1.09-2.18,.57-3.71,.8-7.47,.68-11.22-.05-1.51-.17-3.09-.95-4.39-.6-1-1.68-1.79-2.86-1.85-1.42-.08-1.39,1.02-1.53,2.16-.38,3.05-.47,6.14-.26,9.2,.12,1.74,.33,3.48,.63,5.2Z"/>
    <path class="cls-2" d="M135.06,55.24c-.03,.73-.06,1.47,.12,2.18s.6,1.39,1.25,1.71c.92,.45,2.15,.02,2.63-.88,.26-.48,.31-1.04,.36-1.59,.14-1.46,.28-2.92,.42-4.38,.21-2.24,.38-4.66-.83-6.55-.35-.54-.8-1.02-1.38-1.3-.63-.31-1.67-.48-2.05,.26-.41,.82-.19,2.28-.23,3.18l-.3,7.37Z"/>
    <path class="cls-2" d="M134.85,39.53c-.3,.9,.01,1.96,.75,2.56s1.85,.67,2.66,.18,1.25-1.52,1.05-2.44c-.5-2.32-3.69-2.61-4.46-.3Z"/>
    <path class="cls-2" d="M168.27,46.99c-.06-.93-.16-1.93-.76-2.64-.62-.73-1.74-.98-2.61-.59-.68,.31-.87,.85-1.26,1.43-.53,.8-.87,.27-1.45-.16-1.1-.81-2.56-1.14-3.9-.91-1.99,.34-3.7,1.73-4.75,3.46-1.11,1.82-1.56,4.05-1.1,6.13,.46,2.08,1.85,3.96,3.77,4.88s4.33,.8,6.08-.42c.35-.25,.8-.55,1.17-.34,.42,.24,.32,.86,.13,1.3-.42,.97-1.06,1.87-1.94,2.46-.88,.59-2.02,.83-3.03,.49-.68-.23-1.25-.69-1.88-1.02s-1.42-.52-2.05-.18c-.71,.38-.95,1.33-.73,2.1,.22,.77,.81,1.38,1.44,1.89,1.5,1.2,3.39,1.95,5.32,1.96,1.92,.01,3.87-.75,5.17-2.16,1.82-1.97,2.21-4.84,2.38-7.52,.21-3.38,.22-6.78,.01-10.16Zm-5.91,7.42c-.89,.77-2.25,1.01-3.38,.6-1.12-.41-1.97-1.45-2.12-2.6-.07-.54,0-1.09,.19-1.6,.35-.96,1.11-1.77,2.07-2.21,.86-.39,2.43-.67,3.24,0,.77,.64,1.14,2.06,1.17,2.98,.04,1.05-.36,2.13-1.17,2.83Z"/>
    <g>
      <path class="cls-3" d="M171.66,3.75c-1-1.04-2.38-1.62-3.88-1.62-.46,0-.94,.05-1.43,.16-2.29,.51-4.17,2.24-5.04,4.42-.59,.01-1.18,.08-1.75,.21-.7,.15-1.37,.39-2.02,.7-.51-.28-1.05-.5-1.62-.63-.42-.09-.83-.14-1.23-.14-.9,0-1.64,.22-2.24,.51-1.02-.36-2.1-.54-3.2-.54s-2.15,.2-3.15,.54c-.54-.17-1.11-.26-1.69-.26-.43,0-.86,.05-1.27,.14-.43-.31-.9-.57-1.41-.75-.61-.22-1.25-.33-1.9-.33-1.27,0-2.49,.42-3.48,1.18-.12-.04-.24-.09-.37-.13-.89-.25-1.83-.38-2.77-.38-1.83,0-3.63,.47-5.22,1.34-.56-.28-1.03-.44-1.29-.54-1.45-.51-2.87-.77-4.23-.77-.58,0-1.15,.05-1.69,.14-.46,.08-.89,.2-1.32,.33-.34-.15-.69-.27-1.05-.35-.42-.09-.83-.14-1.23-.14-.9,0-1.64,.22-2.24,.51-1.02-.36-2.1-.54-3.2-.54-1.77,0-3.48,.47-4.96,1.35,0,0,0,0,0,0-.94-.59-1.96-1.03-3.03-1.27-.57-.13-1.16-.2-1.75-.21-.87-2.18-2.75-3.91-5.04-4.42-.49-.11-.97-.16-1.43-.16-1.5,0-2.88,.58-3.88,1.62-.44,.46-.77,.98-1.01,1.51-.24-.53-.57-1.04-1.01-1.51-1-1.04-2.38-1.62-3.88-1.62-.46,0-.94,.05-1.43,.16-2.29,.51-4.17,2.24-5.04,4.42-.59,.01-1.18,.08-1.75,.21-.91,.2-1.79,.55-2.61,1.01-.84-.42-1.75-.71-2.7-.84-.36-.05-.72-.07-1.09-.07-.86,0-1.71,.13-2.53,.38-.73-.43-1.72-.74-3.03-.74-1.11,0-2.26,.22-2.91,.41-.32,.09-.62,.22-.91,.36-.64-.12-1.29-.21-1.96-.21-.87,0-1.74,.11-2.58,.32-.17-.09-.34-.18-.53-.25-.54-2.36-2.52-4.28-5.04-4.68-.31-.05-.63-.07-.95-.07-2.41,0-4.68,1.4-5.78,3.57-.14,.28-.24,.56-.33,.83-.02,0-.04,0-.07-.01-.36-.05-.73-.07-1.09-.07-.86,0-1.71,.13-2.53,.38-.73-.43-1.72-.74-3.03-.74-1.1,0-2.22,.21-2.91,.41-.27,.08-.53,.18-.78,.29-1.14-.48-2.41-.75-3.79-.75-1.87,0-3.43,.22-4.72,.67-.41-.15-.84-.28-1.29-.33l-.28-.03h-.22c-.36,0-.7,.04-1.02,.11-.22-.58-.51-1.14-.91-1.64-1.72-2.11-4.3-2.34-5.41-2.44-1.72-.15-3.44-.3-5.16-.43-.37-.03-.75-.05-1.13-.05-.9,0-1.7,.13-2.45,.4-1.74,.63-3.14,1.98-3.96,3.82-.56,1.25-.73,2.47-.86,3.5-.31,2.59-.45,5.23-.41,7.84,.02,1.33,.08,2.67,.19,3.98,.05,.68,.12,1.36,.2,2.02v.11c.05,.55,.12,1.7,.83,2.82,1.16,1.8,3.32,2.76,6.43,2.84h.25c1.46,0,2.72-.37,3.76-1.09,.3-.21,.57-.46,.83-.72,.91,.56,1.99,.87,3.13,.87h0c1.37,0,2.69-.44,3.71-1.22,.58-.45,1.01-1,1.34-1.57,1.66,1.19,3.65,1.92,5.7,2.03,.17,0,.35,.01,.52,.01,1.58,0,3.14-.37,4.56-1.05,1.41,1.11,2.99,1.16,3.67,1.18h.36c1.72,0,3.12-.51,4.17-1.54,.02-.02,.04-.04,.05-.05,.81,.93,1.87,1.58,3.06,1.85,.41,.1,.84,.14,1.26,.14,1.06,0,2.1-.33,3.01-.88,1.15,.57,2.41,.88,3.68,.88,.42,0,.83-.03,1.24-.1,.29-.05,.58-.12,.85-.2,1.09,.43,2.25,.67,3.41,.68h.06c1.62,0,3.09-.42,4.37-.98,.91,.32,1.73,.34,2.17,.35h.35c1.72,0,3.12-.51,4.17-1.54,.02-.02,.03-.03,.05-.05,.81,.93,1.87,1.58,3.07,1.86,.41,.1,.83,.14,1.26,.14,.66,0,1.31-.13,1.93-.35,.62,.18,1.26,.31,1.92,.35,.19,.01,.38,.02,.58,.02,1.09,0,2.17-.2,3.18-.57,.88,.5,1.88,.78,2.9,.78,.38,0,.77-.04,1.14-.12,2.09-.43,3.87-2.03,4.68-4.18,.83,2.18,2.57,3.74,4.69,4.18,.37,.08,.76,.12,1.14,.12,1.02,0,2.02-.27,2.9-.78,1.01,.37,2.09,.57,3.18,.57,.19,0,.38,0,.58-.02,1.61-.1,3.17-.66,4.51-1.55,1.24,.58,2.62,.9,4.02,.9,.83,0,1.65-.11,2.43-.31,.11,.07,.22,.14,.33,.2,.87,.49,1.87,.75,2.89,.75,1.12,0,2.2-.33,3.14-.9,.36,.05,.71,.08,1.04,.11,.58,.05,1.28,.1,2.02,.1,1.55,0,2.89-.24,4.1-.72,1.43,.8,3.03,1.26,4.65,1.27h.06c1.38,0,2.65-.31,3.79-.75,.86,.53,2.03,.91,3.64,.91h.23c1.77-.03,3.39-.73,4.53-1.89,.11,.06,.21,.14,.32,.19,1.33,.69,2.84,1.05,4.37,1.05,.83,0,1.65-.11,2.43-.31,.11,.07,.21,.13,.33,.2,.87,.49,1.87,.75,2.89,.75h0c.92,0,1.81-.23,2.62-.62,.88,.35,1.81,.58,2.76,.64,.19,.01,.38,.02,.58,.02,1.09,0,2.17-.2,3.18-.57,.88,.5,1.88,.78,2.9,.78,.38,0,.77-.04,1.14-.12,2.16-.45,3.93-2.06,4.74-4.32,.53-1.47,.53-2.88,.54-3.92l.03-9.89c0-.17,.01-.37,.02-.59,.07-1.64,.19-4.38-1.65-6.31Z"/>
      <path class="cls-1" d="M66.8,11.07c.16,.26,.08,.59,.05,.89s.07,.68,.37,.75c.26,.06,.49-.17,.68-.35,.98-.98,2.43-1.47,3.81-1.29s2.65,1.03,3.35,2.23c.61,1.04,.78,2.27,.94,3.46,.14,1.08,.29,2.17,.43,3.25,.14,1.03,.27,2.1-.08,3.08s-1.37,1.79-2.38,1.56c-.74-.17-1.27-.86-1.51-1.58s-.23-1.5-.28-2.26c-.1-1.42-.39-2.83-.86-4.18-.16-.47-.36-.94-.7-1.3s-.85-.6-1.33-.48c-.41,.1-.73,.42-.91,.79s-.26,.79-.33,1.2c-.28,1.8-.44,3.62-.47,5.45,0,.57-.03,1.21-.44,1.6-.41,.4-1.05,.41-1.62,.4-.47-.01-.97-.04-1.33-.34-.33-.28-.46-.73-.56-1.15-.55-2.32-.87-4.7-.95-7.08-.04-1.11-.1-2.3,.06-3.4,.1-.67,.37-1.17,1.05-1.37,.62-.18,2.6-.53,3.01,.15Z"/>
      <path class="cls-1" d="M59.83,18.62c1.07,.03,2.14,.05,3.2,.08,.87,.02,1.86,0,2.46-.64,.58-.62,.55-1.6,.3-2.41-.6-2-2.29-3.62-4.3-4.18-2.01-.56-4.27-.07-5.91,1.23s-2.63,3.35-2.7,5.43c-.05,1.67,.48,3.38,1.56,4.66s2.72,2.1,4.39,2.11c1.84,.01,3.55-.9,5.07-1.94,.68-.46,1.42-1.13,1.29-1.94-.12-.75-.97-1.19-1.72-1.14-1.64,.13-2.8,1.78-4.59,1.4-.84-.18-1.57-1.14-1.17-1.9,.36-.71,1.32-.78,2.12-.76Zm-2.46-1.67c-1.61-.74,1.33-2.62,2.19-2.62,.57,0,1.16,.2,1.52,.64,.36,.44,.42,1.13,.05,1.56-.37,.43-1.01,.48-1.58,.49-.43,.01-.86,.02-1.3,.03-.3,0-.6,.01-.87-.11Z"/>
      <path class="cls-1" d="M16.2,21.5c.06,.8,.16,2.34,.79,2.85,.64,.52,1.83,.49,2.48-.02s.84-2.04,1.03-2.85,.23-1.63,.39-2.44c.22-1.13,.7-2.25,1.55-3.03,.52-.48,1.16-.81,1.71-1.27,.65-.54,1.17-1.3,1.2-2.14s-.56-1.73-1.4-1.82c-.96-.1-2.36,2.17-3.31,2.01-.51-.09-.39-1.83-.85-2.07-1-.51-3.51-.76-3.76,.74-.16,.99-.07,2.09-.07,3.09,0,1.09,.01,2.17,.05,3.26,.04,1.23,.11,2.45,.2,3.68Z"/>
      <path class="cls-1" d="M10.34,25.67c.56,.01,1.15-.05,1.61-.37,.64-.44,.87-1.28,.88-2.06s-.17-1.54-.16-2.32,.24-1.61,.88-2.06c.69-.49,1.63-.38,2.44-.65,.77-.26,1.41-.9,1.67-1.67,.26-.78,.08-1.73-.57-2.22-.8-.6-1.96-.32-2.9-.66-.57-.21-1.09-.8-.89-1.38,.13-.38,.54-.6,.93-.65s.79,.02,1.19,.06c1.1,.11,2.3-.13,3.09-.9s1.04-2.15,.34-3.01c-.62-.76-1.7-.9-2.67-.99-1.7-.15-3.41-.3-5.11-.43-.64-.05-1.31-.1-1.91,.12-.76,.27-1.33,.94-1.66,1.68s-.45,1.55-.54,2.36c-.29,2.42-.42,4.87-.39,7.31,.02,1.24,.08,2.48,.18,3.71,.05,.63,.11,1.27,.19,1.9,.04,.36,.02,.89,.23,1.21,.52,.81,2.31,.98,3.17,1Z"/>
      <path class="cls-1" d="M34.92,13.03c-.39-.66-.86-1.27-1.48-1.71-.87-.62-1.97-.86-3.03-.86-1.24,0-2.92,.11-4.05,.72-1.38,.75-2.5,2-3.09,3.46-.66,1.63-.65,3.51,.01,5.13,.21,.5,.47,.98,.79,1.42,1.17,1.62,3.09,2.67,5.09,2.77s4.02-.76,5.31-2.29c1-1.17,1.55-2.7,1.6-4.24s-.37-3.08-1.15-4.41Zm-4.94,7.01c-1.03,.35-2.29-.08-2.82-1.02-.33-.59-.38-1.3-.27-1.96,.13-.82,.5-1.62,1.13-2.16,.69-.59,1.83-.9,2.49-.15,.67,.77,1.29,1.75,1.26,2.8-.04,1.08-.76,2.14-1.79,2.49Z"/>
      <path class="cls-1" d="M39.1,10.91c.16,.26,.08,.59,.05,.89s.07,.68,.37,.75c.26,.06,.49-.17,.68-.35,.98-.98,2.43-1.47,3.81-1.29s2.65,1.03,3.35,2.23c.61,1.04,.78,2.27,.94,3.46,.14,1.08,.29,2.17,.43,3.25,.14,1.03,.27,2.1-.08,3.08s-1.37,1.79-2.38,1.56c-.74-.17-1.27-.86-1.51-1.58s-.23-1.5-.28-2.26c-.1-1.42-.39-2.83-.86-4.18-.16-.47-.36-.94-.7-1.3s-.85-.6-1.33-.48c-.41,.1-.73,.42-.91,.79s-.26,.79-.33,1.2c-.28,1.8-.44,3.62-.47,5.45,0,.57-.03,1.21-.44,1.6-.41,.4-1.05,.41-1.62,.4-.47-.01-.97-.04-1.33-.34-.33-.28-.46-.73-.56-1.15-.55-2.32-.87-4.7-.95-7.08-.04-1.11-.1-2.3,.06-3.4,.1-.67,.37-1.17,1.05-1.37,.62-.18,2.6-.53,3.01,.15Z"/>
      <path class="cls-1" d="M48.48,7.94c.47-.92,1.53-1.52,2.55-1.36s1.87,1.13,1.8,2.16c-.04,.67-.41,1.44,.02,1.96,.54,.65,1.63,.11,2.44,.36,.64,.2,1.02,.94,.91,1.6s-.64,1.2-1.26,1.44c-.55,.21-1.2,.22-1.68,.57-.73,.53-.77,1.59-.75,2.49,.03,1.13,.17,2.45,1.14,3.04,.57,.35,1.32,.34,1.86,.73,.67,.49,.79,1.51,.4,2.24s-1.2,1.17-2.01,1.3c-1.46,.24-2.98-.43-3.98-1.52s-1.53-2.56-1.7-4.03-.02-2.96,.19-4.43c-1.08,.32-2.34-.59-2.37-1.72-.03-1.31,1.05-1.4,1.86-2s.12-1.92,.59-2.83Z"/>
      <path class="cls-1" d="M93.16,14.05c.75,.06,1.53,.15,2.15,.57s1.01,1.28,.67,1.95c-.31,.62-1.08,.84-1.76,.96-2.1,.37-4.27,.39-6.37,.06-.83-.13-1.72-.35-2.27-.99-.43-.5-.52-1.31-.13-1.86,.41-.59,1.13-.53,1.79-.59,1.97-.21,3.96-.24,5.93-.09Z"/>
      <path class="cls-1" d="M106.76,13.73c-.86-1.42-2.26-2.55-3.88-2.91-1.62-.36-3.45,.12-4.55,1.36,.14-.93,.27-1.86,.19-2.79,0-1.44-1.02-2.88-2.43-3.2-2.65-.59-2.07,2.83-2.07,4.44,0,3.3,.02,6.6,.03,9.89,0,.87,0,1.76,.3,2.58,.29,.82,.94,1.57,1.79,1.75,1.2,.25,2.46-.94,2.28-2.15,1.05,1.32,2.76,2.07,4.45,1.97,1.68-.11,3.28-1.08,4.16-2.52,.66-1.08,.9-2.38,.92-3.64,.03-1.66-.32-3.35-1.18-4.77Zm-6.03,6.33c-1.08-.01-2.16-.78-2.37-1.84-.4-2,2.5-4.86,4.3-3.1,1.77,1.73,.6,4.97-1.93,4.94Z"/>
      <path class="cls-1" d="M119.36,12.72c-.29-.85-.93-1.63-1.81-1.82-1.07-.23-1.23,.52-1.93,.96-.55,.35-1.3-.46-1.96-.7-1.57-.56-3.4-.4-4.83,.46-2.1,1.26-3.28,3.81-3.13,6.25,.14,2.27,1.41,4.49,3.42,5.54,2.02,1.05,4.73,.73,6.27-.94-.1,.76,.3,1.56,.96,1.94,.67,.37,1.56,.3,2.16-.19,.86-.7,.95-1.95,.97-3.06,.04-1.93,.08-3.86,.12-5.79,.02-.89,.03-1.81-.25-2.66Zm-3.98,6.38c-.44,.89-1.48,1.32-2.46,1.49-.84,.14-1.78,.11-2.43-.43-.59-.49-.82-1.3-.78-2.07,.07-1.63,1.83-4.19,3.76-3.55,1.46,.48,2.57,3.23,1.91,4.56Z"/>
      <path class="cls-1" d="M156.87,12.72c-.29-.85-.93-1.63-1.81-1.82-1.07-.23-1.23,.52-1.93,.96-.55,.35-1.3-.46-1.96-.7-1.57-.56-3.4-.4-4.83,.46-2.1,1.26-3.28,3.81-3.13,6.25,.14,2.27,1.41,4.49,3.42,5.54,2.02,1.05,4.73,.73,6.27-.94-.1,.76,.3,1.56,.96,1.94,.67,.37,1.56,.3,2.16-.19,.86-.7,.95-1.95,.97-3.06,.04-1.93,.08-3.86,.12-5.79,.02-.89,.03-1.81-.25-2.66Zm-3.98,6.38c-.44,.89-1.48,1.32-2.46,1.49-.84,.14-1.78,.11-2.43-.43-.59-.49-.82-1.3-.78-2.07,.07-1.63,1.83-4.19,3.76-3.55,1.46,.48,2.57,3.23,1.91,4.56Z"/>
      <path class="cls-1" d="M125.58,15.56c.6,.21,1.31,.2,1.81-.19,.72-.56,.72-1.71,.22-2.47s-1.37-1.19-2.23-1.49c-1.26-.44-2.62-.68-3.93-.46s-2.58,.95-3.26,2.09-.67,2.72,.19,3.75c1.13,1.35,3.15,1.35,4.86,1.79,.72,.19,1.52,.61,1.58,1.35,.05,.68-.62,1.24-1.3,1.29s-1.32-.3-1.86-.71c-.49-.37-.94-.81-1.47-1.12s-1.18-.5-1.77-.32c-.89,.27-1.36,1.35-1.15,2.25s.97,1.6,1.81,1.98,1.79,.48,2.71,.56c1.51,.13,3.08,.19,4.47-.41s2.51-2.08,2.22-3.56c-.25-1.27-1.4-2.15-2.58-2.68s-2.46-.84-3.53-1.56c-.3-.21-.59-.45-.76-.78s-.18-.75,.04-1.04c.27-.36,.82-.42,1.24-.25,1.05,.42,1.54,1.58,2.68,1.98Z"/>
      <path class="cls-1" d="M133.25,18.22c1.07,.03,2.14,.05,3.2,.08,.87,.02,1.86,0,2.46-.64,.58-.62,.55-1.6,.3-2.41-.6-2-2.29-3.62-4.3-4.18-2.01-.56-4.27-.07-5.91,1.23s-2.63,3.35-2.7,5.43c-.05,1.67,.48,3.38,1.56,4.66s2.72,2.1,4.39,2.11c1.84,.01,3.55-.9,5.07-1.94,.68-.46,1.42-1.13,1.29-1.94-.12-.75-.97-1.19-1.72-1.14-1.64,.13-2.8,1.78-4.59,1.4-.84-.18-1.57-1.14-1.17-1.9,.36-.71,1.32-.78,2.12-.76Zm-2.46-1.67c-1.61-.74,1.33-2.62,2.19-2.62,.57,0,1.16,.2,1.52,.64,.36,.44,.42,1.13,.05,1.56-.37,.43-1.01,.48-1.58,.49-.43,.01-.86,.02-1.3,.03-.3,0-.6,.01-.87-.11Z"/>
      <path class="cls-1" d="M137.99,12.9c.02-.76,.06-1.6,.56-2.17,.44-.5,1.19-.7,1.82-.47s1.08,.86,1.1,1.53c0,.38-.07,.87,.27,1.05,.23,.13,.53,0,.71-.21s.26-.46,.4-.69c.48-.78,1.61-1.06,2.4-.61s1.13,1.56,.71,2.38c-.66,1.28-2.51,1.34-3.55,2.34-.63,.61-.88,1.52-.89,2.4s.22,1.73,.43,2.58c.22,.9,.4,1.91-.11,2.68-.41,.64-1.21,.94-1.97,.95-.79,.01-1.94-.05-2.14-.9-.24-1.01,.05-2.42,.08-3.46,.06-2.46,.11-4.92,.17-7.39Z"/>
      <path class="cls-1" d="M155.36,18.51c.02,1.27,.26,2.56,.92,3.64,.87,1.44,2.47,2.41,4.16,2.52,1.68,.11,3.4-.65,4.45-1.97-.18,1.21,1.08,2.4,2.28,2.15,.85-.18,1.49-.93,1.79-1.75,.29-.82,.3-1.71,.3-2.58,0-3.3,.02-6.6,.03-9.89,0-1.61,.58-5.03-2.07-4.44-1.41,.31-2.43,1.76-2.43,3.2-.09,.93,.05,1.87,.19,2.79-1.11-1.24-2.93-1.72-4.55-1.36-1.62,.36-3.02,1.49-3.88,2.91-.86,1.42-1.21,3.11-1.18,4.77Zm5.28-3.39c1.8-1.75,4.7,1.1,4.3,3.1-.21,1.06-1.29,1.83-2.37,1.84-2.53,.03-3.7-3.22-1.93-4.94Z"/>
      <path class="cls-1" d="M73.34,18.51c.02,1.27,.26,2.56,.92,3.64,.87,1.44,2.47,2.41,4.16,2.52,1.68,.11,3.4-.65,4.45-1.97-.18,1.21,1.08,2.4,2.28,2.15,.85-.18,1.49-.93,1.79-1.75,.29-.82,.3-1.71,.3-2.58,0-3.3,.02-6.6,.03-9.89,0-1.61,.58-5.03-2.07-4.44-1.41,.31-2.43,1.76-2.43,3.2-.09,.93,.05,1.87,.19,2.79-1.11-1.24-2.93-1.72-4.55-1.36-1.62,.36-3.02,1.49-3.88,2.91-.86,1.42-1.21,3.11-1.18,4.77Zm5.28-3.39c1.8-1.75,4.7,1.1,4.3,3.1-.21,1.06-1.29,1.83-2.37,1.84-2.53,.03-3.7-3.22-1.93-4.94Z"/>
    </g>
    <path class="cls-2" d="M78.7,40.19c.53-1.05,1.75-1.74,2.91-1.56s2.14,1.3,2.06,2.47c-.05,.77-.46,1.64,.03,2.24,.62,.75,1.86,.12,2.79,.41,.73,.23,1.16,1.07,1.04,1.83s-.73,1.38-1.45,1.65c-.63,.24-1.37,.25-1.92,.65-.84,.61-.89,1.81-.85,2.85,.04,1.29,.2,2.8,1.31,3.47,.66,.4,1.51,.38,2.13,.84,.76,.56,.9,1.73,.45,2.56s-1.37,1.34-2.3,1.49c-1.67,.27-3.41-.49-4.56-1.74s-1.75-2.92-1.95-4.61-.02-3.39,.22-5.06c-1.23,.37-2.68-.68-2.71-1.96-.03-1.49,1.21-1.6,2.12-2.29s.14-2.19,.67-3.23Z"/>
    <path class="cls-2" d="M33.98,52.09c1.22,.03,2.44,.06,3.66,.09,1,.03,2.13,0,2.81-.73,.66-.71,.63-1.83,.35-2.76-.68-2.29-2.62-4.14-4.92-4.78-2.3-.64-4.88-.08-6.76,1.4-1.87,1.48-3.01,3.83-3.09,6.21-.06,1.92,.55,3.86,1.79,5.33s3.1,2.4,5.02,2.42c2.1,.01,4.06-1.03,5.8-2.21,.78-.53,1.62-1.29,1.48-2.22-.13-.85-1.11-1.37-1.97-1.3-1.88,.15-3.21,2.04-5.25,1.6-.96-.21-1.79-1.3-1.34-2.18,.41-.81,1.51-.89,2.42-.87Zm-2.81-1.91c-1.84-.84,1.52-2.99,2.5-2.99,.65,0,1.32,.23,1.73,.73,.41,.5,.48,1.3,.06,1.79-.43,.49-1.16,.55-1.81,.57-.49,.01-.99,.03-1.48,.04-.34,0-.69,.02-1-.13Z"/>
    <path class="cls-2" d="M52.07,46.83c-.98-1.63-2.58-2.92-4.43-3.33-1.85-.41-3.94,.14-5.21,1.56,.16-1.06,.31-2.13,.21-3.19,0-1.64-1.17-3.3-2.78-3.66-3.02-.67-2.37,3.23-2.37,5.08,.01,3.77,.02,7.54,.03,11.31,0,1,0,2.01,.34,2.95,.34,.94,1.07,1.79,2.04,2,1.37,.28,2.82-1.08,2.61-2.46,1.2,1.51,3.16,2.37,5.08,2.25,1.92-.12,3.75-1.24,4.75-2.88,.75-1.24,1.03-2.72,1.05-4.17,.03-1.9-.37-3.83-1.35-5.46Zm-6.9,7.24c-1.24-.01-2.47-.89-2.71-2.1-.46-2.29,2.86-5.55,4.92-3.55,2.02,1.97,.69,5.68-2.2,5.65Z"/>
  </g>
</svg>