<?xml version="1.0" encoding="UTF-8"?>
<svg xmlns="http://www.w3.org/2000/svg" viewBox="0 0 175 72">
  <defs>
    <style>
      .cls-1 {
        fill: #fff;
        stroke: #0a1f41;
        stroke-miterlimit: 10;
        stroke-width: .63px;
      }

      .cls-2 {
        fill: #0a1f41;
      }
    </style>
  </defs>
  <g id="Layer_2" data-name="Layer 2">
    <g>
      <path class="cls-2" d="M3.46,29.76c1.31,2.04,3.77,3.13,7.31,3.22h.27c1.66,0,3.09-.41,4.27-1.24,.36-.25,.67-.54,.97-.85,1.04,.65,2.28,1.01,3.59,1.01,1.56,0,3.05-.49,4.21-1.38,.69-.53,1.19-1.17,1.56-1.83,1.9,1.38,4.18,2.22,6.54,2.34,.2,.01,.39,.01,.59,.01,1.81,0,3.6-.43,5.22-1.21,1.61,1.29,3.42,1.34,4.19,1.36h.41c1.95,0,3.53-.58,4.72-1.75,.04-.03,.07-.07,.1-.1,.93,1.08,2.14,1.83,3.51,2.15,.47,.11,.95,.16,1.43,.16,1.22,0,2.4-.38,3.44-1.02,1.32,.65,2.75,1.01,4.21,1.01,.47,0,.95-.04,1.41-.11,1.8-.3,3.42-1.17,4.57-2.43,1.06,1.47,2.56,2.49,4.29,2.85,.42,.09,.86,.13,1.29,.13,1.17,0,2.31-.31,3.31-.9,1.16,.43,2.39,.66,3.65,.66h0c.22,0,.43,0,.66-.02,1.84-.12,3.62-.77,5.15-1.79,1.42,.67,3,1.04,4.61,1.04,.95,0,1.89-.12,2.79-.36,.13,.09,.26,.17,.4,.24,.99,.55,2.12,.84,3.27,.84,1.28,0,2.51-.38,3.57-1.04,.42,.05,.82,.1,1.21,.13,.76,.06,1.53,.11,2.3,.11,1.78,0,3.31-.28,4.69-.83,1.63,.92,3.47,1.44,5.31,1.45h.07c1.58,0,3.04-.36,4.34-.86,.98,.61,2.31,1.05,4.16,1.05h.26c2.03-.04,3.88-.84,5.17-2.18,.14,.08,.26,.17,.4,.24,1.51,.78,3.22,1.2,4.97,1.2,.95,0,1.89-.12,2.79-.36,.13,.09,.26,.17,.4,.24,.99,.55,2.12,.84,3.27,.84h0c1.05,0,2.08-.26,3-.72,1.01,.4,2.07,.67,3.16,.74,.22,.01,.44,.02,.65,.02,1.25,0,2.49-.23,3.65-.66,1.01,.58,2.15,.9,3.31,.9,.43,0,.87-.04,1.29-.13,2.45-.51,4.46-2.34,5.37-4.89,.6-1.68,.61-3.29,.61-4.46l.03-11.31c0-.2,.01-.43,.02-.67,.09-1.98,.22-4.98-1.87-7.17-1.13-1.18-2.69-1.83-4.39-1.83-.53,0-1.07,.06-1.62,.18-2.61,.58-4.75,2.56-5.73,5.05-.69,.01-1.37,.09-2.03,.24-.8,.18-1.58,.46-2.32,.81-.59-.33-1.21-.58-1.87-.73-.47-.1-.94-.15-1.39-.15-1.03,0-1.87,.25-2.55,.59-1.17-.41-2.41-.62-3.67-.62s-2.46,.23-3.6,.62c-.62-.19-1.27-.3-1.93-.3-.5,0-.99,.06-1.47,.16-.49-.36-1.03-.66-1.62-.87-.69-.25-1.41-.37-2.15-.37-1.45,0-2.84,.49-3.95,1.36-.15-.05-.3-.11-.45-.16-1.02-.28-2.08-.43-3.15-.43-2.09,0-4.15,.54-5.96,1.54-.64-.32-1.19-.52-1.5-.62-1.65-.58-3.27-.88-4.81-.88-.65,0-1.3,.05-1.93,.16-.53,.09-1.03,.23-1.53,.39-.39-.17-.79-.32-1.21-.41-.47-.1-.94-.15-1.39-.15-1.03,0-1.87,.25-2.55,.59-1.17-.41-2.41-.62-3.67-.62-2.01,0-3.96,.53-5.64,1.54-.01,0-.02,.02-.03,.02-1.08-.68-2.25-1.19-3.48-1.46-.66-.15-1.35-.23-2.03-.24-.98-2.49-3.13-4.47-5.73-5.05-.55-.12-1.1-.18-1.62-.18-1.7,0-3.26,.65-4.39,1.83-1.22,1.27-1.67,2.82-1.83,4.28-.15-.07-.3-.15-.46-.21-.61-2.69-2.85-4.89-5.72-5.34-.36-.06-.72-.08-1.08-.08-2.73,0-5.3,1.59-6.56,4.05-.17,.33-.29,.66-.39,.99-.04,0-.08-.02-.13-.02-.41-.05-.82-.08-1.24-.08-.99,0-1.97,.15-2.9,.45-.83-.49-1.95-.86-3.46-.86-1.26,0-2.57,.25-3.31,.47-.32,.09-.62,.21-.91,.34-1.3-.55-2.76-.86-4.34-.86-2.14,0-3.92,.25-5.39,.77-.47-.18-.96-.32-1.48-.37l-.32-.03h-.24c-.43,0-.82,.06-1.2,.14-.25-.68-.58-1.33-1.06-1.91-1.96-2.39-4.89-2.65-6.14-2.77-1.96-.17-3.93-.34-5.89-.49-.42-.03-.86-.06-1.28-.06-1.02,0-1.93,.15-2.78,.46-1.97,.71-3.57,2.25-4.49,4.34-.63,1.42-.83,2.8-.98,3.99-.36,2.96-.52,5.98-.47,8.96,.02,1.51,.09,3.04,.22,4.56,.06,.77,.14,1.55,.24,2.43,.05,.68,.13,1.93,.93,3.18Z"/>
      <path class="cls-2" d="M172.78,46.71c-.07-1.1-.21-3.38-1.83-5.29-1.28-1.49-3.16-2.35-5.16-2.35-.96,0-1.88,.2-2.74,.58-.28,.12-.53,.26-.77,.41-1-.34-2.07-.52-3.14-.52-.54,0-1.08,.05-1.6,.13-1.34,.23-2.62,.73-3.79,1.45-1.27-.89-2.75-1.49-4.31-1.7-.41-.05-.83-.08-1.24-.08-.99,0-1.97,.15-2.9,.44-.43-.25-.94-.47-1.54-.63-.02-.1-.02-.2-.04-.3-.7-3.21-3.46-5.45-6.73-5.45-1.5,0-2.88,.47-4.01,1.31-.22-.03-.44-.07-.67-.08h-.38c-1.28-.01-3.99,.38-5.25,3.42-.32-.65-.78-1.31-1.43-1.89-1.1-.97-2.53-1.5-4.04-1.5-1.4,0-2.78,.46-3.88,1.29-1.08,.81-1.86,1.86-2.34,3.13-2,0-3.94,.53-5.68,1.45-.76-.41-1.56-.75-2.4-.99-1.02-.28-2.08-.43-3.15-.43-1.25,0-2.48,.2-3.66,.57-.64-.2-1.32-.32-2.04-.32-1.63,0-3.21,.55-4.46,1.55-.61,.48-1.1,1.02-1.51,1.58-.07-.08-.14-.15-.21-.23-.44-.47-.96-.89-1.53-1.25-.64-.67-1.42-1.22-2.33-1.54-.61-2.69-2.85-4.89-5.72-5.34-.36-.06-.72-.08-1.07-.08-2.73,0-5.31,1.59-6.56,4.05-.18,.35-.3,.7-.4,1.04-.03,0-.05,0-.08,0-1.85,.31-3.43,1.46-4.44,3.07-.16-.2-.32-.4-.5-.58-1.29-1.36-3.18-2.17-5.06-2.17-.52,0-1.02,.07-1.51,.19-.6-.25-1.21-.46-1.84-.6-.66-.15-1.35-.23-2.03-.24-.98-2.49-3.13-4.47-5.73-5.05-.55-.12-1.1-.18-1.62-.18-1.7,0-3.26,.65-4.39,1.83-.57,.6-.97,1.26-1.25,1.94-1.14-1.78-2.9-3.13-4.97-3.59-.55-.12-1.1-.18-1.62-.18-1.7,0-3.26,.65-4.39,1.83-1.06,1.11-1.55,2.43-1.76,3.72-.96,.07-1.91,.25-2.83,.54-.77-.33-1.6-.52-2.49-.52-1.69,0-3.38,.64-4.7,1.73-.15-.13-.31-.26-.48-.38-1.14-.82-2.51-1.25-3.95-1.25-1.75,0-3.48,.64-4.84,1.76-1.3-1.41-3.09-2.23-4.95-2.23-.55,0-1.09,.07-1.61,.21-2.55,.69-4.47,3.04-4.78,5.84-.2,1.79,.26,3.33,.57,4.35l1.92,6.47c.48,1.63,1.15,3.86,2.87,5.73,1.56,1.7,3.81,2.72,6.03,2.72,1.27,0,2.51-.33,3.58-.97,.38-.22,.71-.47,1.02-.73,.03,.03,.06,.06,.1,.09,1.28,1.2,2.99,1.87,4.81,1.87,.54,0,1.08-.06,1.61-.18,1.15-.26,2.22-.82,3.16-1.58,1.48,.72,3.09,1.12,4.71,1.13h.07c1.41,0,2.73-.29,3.92-.71,.68,.42,1.41,.73,2.2,.89,.42,.09,.86,.13,1.29,.13,1.17,0,2.31-.31,3.31-.9,1.16,.43,2.39,.66,3.65,.66h0c.22,0,.43,0,.66-.02,.66-.04,1.31-.17,1.95-.34,.44,.2,.9,.37,1.38,.47,.42,.09,.86,.13,1.29,.13,1.17,0,2.3-.31,3.31-.9,1.16,.43,2.39,.66,3.65,.66h0c.22,0,.43,0,.66-.02,1.46-.1,2.88-.53,4.17-1.21,1.39,.69,2.91,1.08,4.5,1.1,1.01,0,2.03-.16,3.06-.47,.37,.2,.77,.37,1.19,.49,.56,.16,1.14,.24,1.72,.24,1.65,0,3.22-.66,4.46-1.79,1.51,.92,3.23,1.43,4.97,1.43,.47,0,.95-.04,1.42-.11,.89-.15,1.74-.44,2.51-.84,1.33,.77,2.81,1.21,4.31,1.21h0c.67,0,1.34-.09,1.98-.26,.99-.26,1.94-.73,2.79-1.36,1.66,.96,3.53,1.5,5.42,1.51h.07c2.38,0,4.48-.8,6.18-1.71,1.51,.87,3.2,1.42,4.97,1.6,.4,.04,.81,.06,1.21,.06,1.15,0,2.28-.16,3.37-.46,.91,.44,1.91,.7,2.95,.7,1.46,0,2.84-.46,3.94-1.3,.15,.09,.29,.17,.44,.25,1.35,.72,2.88,1.09,4.43,1.09,.76,0,1.52-.09,2.25-.27,.3-.07,.58-.16,.86-.26,.04,0,.07,0,.11,0,.48,0,.95-.06,1.41-.17,.76,.32,1.58,.51,2.42,.51,.9,0,1.77-.19,2.58-.53,.78,.19,1.45,.21,1.84,.22h.41c1.95,0,3.53-.58,4.72-1.75,.04-.03,.07-.07,.1-.1,.71,.83,1.6,1.46,2.59,1.86,.04,.24,.06,.48,.13,.71,.45,1.57,1.42,2.94,2.96,4.17,2.36,1.89,5.24,2.93,8.11,2.95h.06c3.25,0,6.33-1.32,8.45-3.61,2.76-2.99,3.35-6.88,3.57-10.3,.22-3.56,.23-7.16,.01-10.72Z"/>
    </g>
  </g>
  <g id="Layer_1" data-name="Layer 1">
    <g>
      <path class="cls-1" d="M17.59,23.71c.07,.92,.19,2.68,.91,3.26,.74,.59,2.09,.56,2.83-.02s.96-2.34,1.18-3.25,.26-1.87,.45-2.79c.26-1.3,.8-2.58,1.78-3.47,.6-.55,1.33-.93,1.95-1.45,.74-.62,1.34-1.48,1.37-2.44s-.64-1.97-1.6-2.08c-1.1-.12-2.69,2.48-3.78,2.29-.58-.1-.45-2.1-.97-2.36-1.14-.58-4.02-.87-4.3,.85-.19,1.13-.08,2.39-.08,3.54,0,1.24,.01,2.48,.05,3.73,.05,1.4,.12,2.81,.23,4.21Z"/>
      <path class="cls-1" d="M120.03,39.6c.65-.49,1.64-.55,2.24-.02,.6,.53,.67,1.43,.7,2.24,.06,1.85,.12,3.7,.18,5.55,.02,.51,.06,1.07,.44,1.41,.42,.37,1.09,.29,1.55-.03s.75-.81,1.05-1.28c.96-1.53,2.22-3.07,3.99-3.41,.77-.15,1.71,.04,2.04,.75,.27,.56,.04,1.23-.23,1.79-.52,1.04-1.24,1.98-2.1,2.75-.39,.35-.81,.67-1.14,1.07s-.56,.93-.48,1.45c.09,.6,.57,1.06,1.01,1.46,.81,.74,1.62,1.49,2.44,2.23,.38,.35,.77,.7,1.03,1.15s.39,1,.22,1.48c-.23,.65-.92,1.02-1.59,1.18-1.16,.29-2.43,.13-3.49-.43-1.05-.56-1.88-1.48-2.49-2.5s-1.04-2.14-1.46-3.26c-.31,.41-.52,.89-.61,1.4-.12,.71,.01,1.44,.05,2.16s-.04,1.5-.49,2.06c-.69,.86-2.13,.86-2.96,.13-.96-.84-1.09-2.27-1.12-3.54-.06-2.51,0-5.02,.17-7.52,.12-1.8-.04-3.47-.06-5.25-.01-1.1,.15-2.31,1.1-3.02Z"/>
      <path class="cls-1" d="M10.88,28.47c.64,.02,1.32-.06,1.84-.42,.73-.51,1-1.47,1.01-2.35s-.19-1.77-.18-2.65,.28-1.84,1-2.36c.79-.56,1.87-.43,2.79-.74,.88-.3,1.61-1.03,1.9-1.91,.29-.89,.1-1.98-.65-2.54-.92-.69-2.24-.36-3.31-.75-.65-.24-1.25-.92-1.02-1.57,.15-.43,.61-.68,1.06-.74s.91,.03,1.36,.07c1.26,.12,2.63-.15,3.54-1.03s1.19-2.46,.39-3.44c-.71-.86-1.94-1.03-3.05-1.13-1.95-.17-3.89-.34-5.84-.49-.73-.06-1.49-.11-2.19,.14-.87,.31-1.52,1.08-1.9,1.92s-.51,1.78-.62,2.7c-.33,2.77-.48,5.57-.44,8.36,.02,1.42,.09,2.83,.2,4.24,.06,.73,.13,1.45,.22,2.17,.05,.41,.02,1.01,.26,1.38,.6,.93,2.64,1.12,3.62,1.15Z"/>
      <path class="cls-1" d="M38.99,14.02c-.44-.75-.99-1.45-1.7-1.96-.99-.71-2.25-.98-3.47-.98-1.42,0-3.34,.13-4.63,.83-1.58,.86-2.86,2.29-3.54,3.95-.75,1.86-.75,4.01,.02,5.87,.24,.57,.54,1.12,.91,1.62,1.34,1.85,3.54,3.05,5.82,3.17s4.6-.87,6.08-2.61c1.14-1.34,1.77-3.09,1.83-4.85s-.43-3.52-1.32-5.04Zm-5.65,8.02c-1.17,.4-2.62-.09-3.23-1.17-.38-.67-.43-1.48-.31-2.24,.15-.94,.57-1.86,1.29-2.47,.79-.67,2.09-1.03,2.85-.17,.77,.88,1.48,2,1.44,3.21-.04,1.24-.87,2.44-2.04,2.84Z"/>
      <path class="cls-1" d="M43.76,11.59c.18,.3,.09,.67,.06,1.02s.08,.78,.42,.85c.3,.07,.56-.19,.78-.4,1.13-1.12,2.78-1.68,4.36-1.47s3.03,1.17,3.83,2.54c.69,1.19,.89,2.59,1.07,3.95,.17,1.24,.33,2.48,.5,3.71,.16,1.18,.31,2.41-.1,3.52s-1.57,2.05-2.72,1.78c-.85-.2-1.46-.98-1.73-1.81s-.27-1.72-.33-2.59c-.11-1.63-.44-3.24-.98-4.78-.19-.53-.41-1.07-.8-1.49s-.97-.68-1.52-.55c-.46,.11-.83,.48-1.04,.91s-.3,.9-.37,1.37c-.32,2.06-.5,4.14-.53,6.23,0,.65-.04,1.38-.5,1.83-.47,.46-1.2,.47-1.85,.45-.53-.01-1.11-.04-1.52-.39-.38-.32-.52-.83-.64-1.31-.63-2.66-.99-5.37-1.08-8.1-.04-1.27-.11-2.63,.07-3.89,.11-.77,.42-1.34,1.2-1.57,.71-.21,2.97-.61,3.44,.17Z"/>
      <path class="cls-1" d="M143.25,43.91c.18,.3,.09,.67,.06,1.02s.08,.78,.42,.85c.3,.07,.56-.19,.78-.4,1.13-1.12,2.78-1.68,4.36-1.47s3.03,1.17,3.83,2.54c.69,1.19,.89,2.59,1.07,3.95,.17,1.24,.33,2.48,.5,3.71,.16,1.18,.31,2.41-.1,3.52s-1.57,2.05-2.72,1.78c-.85-.2-1.46-.98-1.73-1.81s-.27-1.72-.33-2.59c-.11-1.63-.44-3.24-.98-4.78-.19-.53-.41-1.07-.8-1.49s-.97-.68-1.52-.55c-.46,.11-.83,.48-1.04,.91s-.3,.9-.37,1.37c-.32,2.06-.5,4.14-.53,6.23,0,.65-.04,1.38-.5,1.83-.47,.46-1.2,.47-1.85,.45-.53-.01-1.11-.04-1.52-.39-.38-.32-.52-.83-.64-1.31-.63-2.66-.99-5.37-1.08-8.1-.04-1.27-.11-2.63,.07-3.89,.11-.77,.42-1.34,1.2-1.57,.71-.21,2.97-.61,3.44,.17Z"/>
      <path class="cls-1" d="M54.49,8.2c.53-1.05,1.75-1.74,2.91-1.56s2.14,1.3,2.06,2.47c-.05,.77-.46,1.64,.03,2.24,.62,.75,1.86,.12,2.79,.41,.73,.23,1.16,1.07,1.04,1.83s-.73,1.38-1.45,1.65c-.63,.24-1.37,.25-1.92,.65-.84,.61-.89,1.81-.85,2.85,.04,1.29,.2,2.8,1.31,3.47,.66,.4,1.51,.38,2.13,.84,.76,.56,.9,1.73,.45,2.56s-1.37,1.34-2.3,1.49c-1.67,.27-3.41-.49-4.56-1.74s-1.75-2.92-1.95-4.61-.02-3.39,.22-5.06c-1.23,.37-2.68-.68-2.71-1.96-.03-1.49,1.21-1.6,2.12-2.29s.14-2.19,.67-3.23Z"/>
      <path class="cls-1" d="M67.42,15.18c.85,.06,1.75,.17,2.45,.65s1.15,1.46,.77,2.23c-.36,.71-1.23,.96-2.01,1.1-2.4,.42-4.88,.44-7.29,.06-.95-.15-1.97-.4-2.6-1.14-.49-.57-.59-1.5-.15-2.13,.47-.67,1.3-.6,2.05-.68,2.25-.24,4.53-.27,6.79-.1Z"/>
      <path class="cls-1" d="M83.35,14.82c-.98-1.63-2.58-2.92-4.43-3.33-1.85-.41-3.94,.14-5.21,1.56,.16-1.06,.31-2.13,.21-3.19,0-1.64-1.17-3.3-2.78-3.66-3.02-.67-2.37,3.23-2.37,5.08,.01,3.77,.02,7.54,.03,11.31,0,1,0,2.01,.34,2.95,.34,.94,1.07,1.79,2.04,2,1.37,.28,2.82-1.08,2.61-2.46,1.2,1.51,3.16,2.37,5.08,2.25,1.92-.12,3.75-1.24,4.75-2.88,.75-1.24,1.03-2.72,1.05-4.17,.03-1.9-.37-3.83-1.35-5.46Zm-6.9,7.24c-1.24-.01-2.47-.89-2.71-2.1-.46-2.29,2.86-5.55,4.92-3.55,2.02,1.97,.69,5.68-2.2,5.65Z"/>
      <path class="cls-1" d="M64.31,46.83c-.98-1.63-2.58-2.92-4.43-3.33-1.85-.41-3.94,.14-5.21,1.56,.16-1.06,.31-2.13,.21-3.19,0-1.64-1.17-3.3-2.78-3.66-3.02-.67-2.37,3.23-2.37,5.08,.01,3.77,.02,7.54,.03,11.31,0,1,0,2.01,.34,2.95,.34,.94,1.07,1.79,2.04,2,1.37,.28,2.82-1.08,2.61-2.46,1.2,1.51,3.16,2.37,5.08,2.25,1.92-.12,3.75-1.24,4.75-2.88,.75-1.24,1.03-2.72,1.05-4.17,.03-1.9-.37-3.83-1.35-5.46Zm-6.9,7.24c-1.24-.01-2.47-.89-2.71-2.1-.46-2.29,2.86-5.55,4.92-3.55,2.02,1.97,.69,5.68-2.2,5.65Z"/>
      <path class="cls-1" d="M97.75,13.67c-.33-.97-1.07-1.86-2.06-2.08-1.22-.27-1.41,.59-2.21,1.09-.63,.4-1.49-.53-2.24-.8-1.79-.64-3.89-.45-5.52,.52-2.41,1.44-3.75,4.35-3.57,7.15,.16,2.59,1.61,5.14,3.92,6.34,2.3,1.2,5.4,.83,7.17-1.07-.12,.87,.34,1.79,1.1,2.22,.76,.43,1.79,.34,2.47-.22,.98-.8,1.09-2.23,1.11-3.5,.05-2.21,.09-4.41,.14-6.62,.02-1.02,.03-2.07-.29-3.04Zm-4.55,7.29c-.51,1.02-1.69,1.51-2.81,1.7-.96,.16-2.03,.13-2.78-.49-.67-.56-.93-1.49-.9-2.36,.08-1.87,2.09-4.79,4.3-4.06,1.67,.55,2.94,3.69,2.18,5.21Z"/>
      <path class="cls-1" d="M140.64,13.67c-.33-.97-1.07-1.86-2.06-2.08-1.22-.27-1.41,.59-2.21,1.09-.63,.4-1.49-.53-2.24-.8-1.79-.64-3.89-.45-5.52,.52-2.41,1.44-3.75,4.35-3.57,7.15,.16,2.59,1.61,5.14,3.92,6.34,2.3,1.2,5.4,.83,7.17-1.07-.12,.87,.34,1.79,1.1,2.22,.76,.43,1.79,.34,2.47-.22,.98-.8,1.09-2.23,1.11-3.5,.05-2.21,.09-4.41,.14-6.62,.02-1.02,.03-2.07-.29-3.04Zm-4.55,7.29c-.51,1.02-1.69,1.51-2.81,1.7-.96,.16-2.03,.13-2.78-.49-.67-.56-.93-1.49-.9-2.36,.08-1.87,2.09-4.79,4.3-4.06,1.67,.55,2.94,3.69,2.18,5.21Z"/>
      <path class="cls-1" d="M104.87,16.92c.68,.24,1.5,.23,2.07-.21,.82-.64,.82-1.96,.25-2.82s-1.57-1.36-2.55-1.7c-1.44-.51-2.99-.78-4.49-.52s-2.95,1.08-3.73,2.39-.76,3.12,.22,4.28c1.29,1.54,3.6,1.54,5.55,2.05,.82,.21,1.74,.7,1.81,1.55,.06,.77-.71,1.42-1.48,1.47s-1.51-.34-2.13-.81c-.56-.42-1.07-.92-1.68-1.28s-1.34-.58-2.02-.37c-1.01,.31-1.55,1.54-1.31,2.57s1.1,1.83,2.07,2.26,2.04,.55,3.1,.64c1.72,.15,3.52,.22,5.11-.47s2.87-2.37,2.54-4.07c-.28-1.45-1.6-2.46-2.95-3.07s-2.82-.96-4.04-1.78c-.35-.24-.68-.52-.87-.89s-.21-.86,.05-1.19c.31-.41,.94-.48,1.42-.28,1.2,.48,1.76,1.81,3.06,2.27Z"/>
      <path class="cls-1" d="M113.64,19.95c1.22,.03,2.44,.06,3.66,.09,1,.03,2.13,0,2.81-.73,.66-.71,.63-1.83,.35-2.76-.68-2.29-2.62-4.14-4.92-4.78-2.3-.64-4.88-.08-6.76,1.4-1.87,1.48-3.01,3.83-3.09,6.21-.06,1.92,.55,3.86,1.79,5.33s3.1,2.4,5.02,2.42c2.1,.01,4.06-1.03,5.8-2.21,.78-.53,1.62-1.29,1.48-2.22-.13-.85-1.11-1.37-1.97-1.3-1.88,.15-3.21,2.04-5.25,1.6-.96-.21-1.79-1.3-1.34-2.18,.41-.81,1.51-.89,2.42-.87Zm-2.81-1.91c-1.84-.84,1.52-2.99,2.5-2.99,.65,0,1.32,.23,1.73,.73,.41,.5,.48,1.3,.06,1.79-.43,.49-1.16,.55-1.81,.57-.49,.01-.99,.03-1.48,.04-.34,0-.69,.02-1-.13Z"/>
      <path class="cls-1" d="M103.8,52.09c1.22,.03,2.44,.06,3.66,.09,1,.03,2.13,0,2.81-.73,.66-.71,.63-1.83,.35-2.76-.68-2.29-2.62-4.14-4.92-4.78-2.3-.64-4.88-.08-6.76,1.4s-3.01,3.83-3.09,6.21c-.06,1.92,.55,3.86,1.79,5.33s3.1,2.4,5.02,2.42c2.1,.01,4.06-1.03,5.8-2.21,.78-.53,1.62-1.29,1.48-2.22-.13-.85-1.11-1.37-1.97-1.3-1.88,.15-3.21,2.04-5.25,1.6-.96-.21-1.79-1.3-1.34-2.18,.41-.81,1.51-.89,2.42-.87Zm-2.81-1.91c-1.84-.84,1.52-2.99,2.5-2.99,.65,0,1.32,.23,1.73,.73,.41,.5,.48,1.3,.06,1.79-.43,.49-1.16,.55-1.81,.57-.49,.01-.99,.03-1.48,.04-.34,0-.69,.02-1-.13Z"/>
      <path class="cls-1" d="M119.06,13.88c.02-.87,.07-1.83,.64-2.49,.5-.58,1.36-.8,2.08-.54s1.24,.98,1.25,1.74c0,.44-.07,.99,.31,1.2,.27,.14,.61,0,.81-.24s.3-.53,.46-.79c.55-.89,1.84-1.22,2.75-.7s1.29,1.79,.81,2.72c-.75,1.46-2.87,1.53-4.05,2.68-.72,.7-1.01,1.74-1.01,2.74s.25,1.98,.49,2.96c.25,1.02,.45,2.18-.12,3.07-.47,.73-1.38,1.07-2.25,1.09-.9,.02-2.22-.06-2.45-1.03-.27-1.16,.06-2.77,.09-3.96,.07-2.82,.13-5.63,.2-8.45Z"/>
      <path class="cls-1" d="M29.37,44.79c.29,.67,.11,1.45-.07,2.16-.71,2.81-1.42,5.61-2.13,8.42-.27,1.08-.56,2.19-1.22,3.08-.49,.67-1.2,1.2-2.01,1.38s-1.72,0-2.32-.58c-.52-.49-.78-1.2-1.02-1.88-.75-2.14-1.41-6.48-2.24-6.43-.95,.06-1.45,2.67-1.55,4.22-.1,1.55-.37,3.34-1.7,4.13-1.27,.75-2.99,.17-3.99-.91s-1.45-2.55-1.87-3.97c-.64-2.16-1.28-4.31-1.93-6.47-.25-.84-.5-1.7-.41-2.57s.63-1.75,1.47-1.98c.86-.23,1.79,.29,2.3,1.02s.7,1.64,.88,2.52c.35,1.71,.69,3.42,1.04,5.13,.09,.46,.26,1,.71,1.13,.63,.18,1.1-.6,1.23-1.25,.26-1.25,.25-2.54,.42-3.8s.57-2.56,1.48-3.45,2.45-1.23,3.49-.49c.93,.67,1.19,1.92,1.37,3.05,.24,1.48,.15,3.96,1.15,5.14,.54,.64,.84,.54,1.15-.19,.96-2.26,.35-5.03,1.73-7.18,.83-1.3,3.23-2.09,4.02-.26Z"/>
      <path class="cls-1" d="M62.09,50.45c.02,2.04,.46,4.12,1.59,5.81s3.03,2.94,5.07,2.97c1.63,.02,3.18-.71,4.52-1.64-.26,.74,.29,1.61,1.04,1.83s1.6-.13,2.11-.72c.78-.9,.88-2.18,.94-3.37,.11-2.33,.23-4.66,.34-7,.05-1.05,.1-2.14-.31-3.1s-1.41-1.77-2.44-1.6c-1.12,.19-1.79,1.42-1.84,2.56s.34,2.24,.52,3.36c.22,1.38,.1,2.88-.65,4.06s-2.25,1.94-3.6,1.57c-.89-.25-1.61-.95-2.02-1.78s-.54-1.77-.54-2.7c0-1.02,.18-2.04,.15-3.07s-.28-2.1-.99-2.84c-.84-.88-2.61-1.18-3.2,.08-.71,1.52-.71,3.93-.69,5.58Z"/>
      <path class="cls-1" d="M86.89,52.75c.44,1.64,.91,3.33,1.95,4.67s2.79,2.28,4.44,1.85c1.01-.27,1.85-1.02,2.43-1.89s.94-1.87,1.3-2.85c.85-2.35,1.7-4.7,2.55-7.05,.32-.88,.63-1.9,.17-2.72-.62-1.1-2.33-1.09-3.31-.3s-1.43,2.05-1.83,3.25c-.57,1.72-1.14,3.44-1.7,5.15-.09,.29-.21,.6-.48,.74-.28,.15-.65,.03-.88-.19s-.35-.53-.45-.84c-.4-1.22-.57-2.51-.86-3.76s-.75-2.51-1.63-3.45c-1.03-1.11-3.98-2.05-3.57,.43,.39,2.33,1.26,4.67,1.88,6.95Z"/>
      <path class="cls-1" d="M119.89,50.04c.81-.1,1.63-.66,1.77-1.47,.1-.57-.16-1.15-.47-1.64-1.25-1.97-3.53-3.2-5.86-3.31-2.92-.13-5.85,1.54-7.22,4.12s-1.12,5.94,.62,8.29c1.31,1.76,3.38,2.93,5.57,3.14s4.44-.51,6.1-1.94c.74-.63,1.4-1.58,1.13-2.51-.29-.98-1.49-1.41-2.5-1.26s-1.9,.72-2.84,1.11-2.07,.62-2.95,.09c-1.06-.63-1.3-2.04-1.32-3.27,0-.87,.05-1.78,.51-2.52,.53-.84,1.57-1.33,2.56-1.2,1.1,.15,1.55,.94,2.26,1.65,.65,.64,1.75,.83,2.63,.71Z"/>
      <path class="cls-1" d="M130.91,55.74c.15,.86,.34,1.74,.89,2.42s1.55,1.06,2.31,.65c.74-.41,.96-1.35,1.09-2.18,.57-3.71,.8-7.47,.68-11.22-.05-1.51-.17-3.09-.95-4.39-.6-1-1.68-1.79-2.86-1.85-1.42-.08-1.39,1.02-1.53,2.16-.38,3.05-.47,6.14-.26,9.2,.12,1.74,.33,3.48,.63,5.2Z"/>
      <path class="cls-1" d="M135.06,55.24c-.03,.73-.06,1.47,.12,2.18s.6,1.39,1.25,1.71c.92,.45,2.15,.02,2.63-.88,.26-.48,.31-1.04,.36-1.59,.14-1.46,.28-2.92,.42-4.38,.21-2.24,.38-4.66-.83-6.55-.35-.54-.8-1.02-1.38-1.3-.63-.31-1.67-.48-2.05,.26-.41,.82-.19,2.28-.23,3.18l-.3,7.37Z"/>
      <path class="cls-1" d="M134.85,39.53c-.3,.9,.01,1.96,.75,2.56s1.85,.67,2.66,.18,1.25-1.52,1.05-2.44c-.5-2.32-3.69-2.61-4.46-.3Z"/>
      <path class="cls-1" d="M168.27,46.99c-.06-.93-.16-1.93-.76-2.64-.62-.73-1.74-.98-2.61-.59-.68,.31-.87,.85-1.26,1.43-.53,.8-.87,.27-1.45-.16-1.1-.81-2.56-1.14-3.9-.91-1.99,.34-3.7,1.73-4.75,3.46-1.11,1.82-1.56,4.05-1.1,6.13,.46,2.08,1.85,3.96,3.77,4.88s4.33,.8,6.08-.42c.35-.25,.8-.55,1.17-.34,.42,.24,.32,.86,.13,1.3-.42,.97-1.06,1.87-1.94,2.46-.88,.59-2.02,.83-3.03,.49-.68-.23-1.25-.69-1.88-1.02s-1.42-.52-2.05-.18c-.71,.38-.95,1.33-.73,2.1,.22,.77,.81,1.38,1.44,1.89,1.5,1.2,3.39,1.95,5.32,1.96,1.92,.01,3.87-.75,5.17-2.16,1.82-1.97,2.21-4.84,2.38-7.52,.21-3.38,.22-6.78,.01-10.16Zm-5.91,7.42c-.89,.77-2.25,1.01-3.38,.6-1.12-.41-1.97-1.45-2.12-2.6-.07-.54,0-1.09,.19-1.6,.35-.96,1.11-1.77,2.07-2.21,.86-.39,2.43-.67,3.24,0,.77,.64,1.14,2.06,1.17,2.98,.04,1.05-.36,2.13-1.17,2.83Z"/>
      <path class="cls-1" d="M138.93,20.28c.02,1.45,.3,2.93,1.05,4.17,1,1.65,2.83,2.76,4.75,2.88,1.92,.12,3.88-.74,5.08-2.25-.2,1.39,1.24,2.75,2.61,2.46,.98-.2,1.71-1.06,2.04-2,.34-.94,.34-1.96,.34-2.95,.01-3.77,.02-7.54,.03-11.31,0-1.84,.66-5.75-2.37-5.08-1.61,.36-2.78,2.01-2.78,3.66-.1,1.06,.06,2.13,.21,3.19-1.26-1.42-3.35-1.97-5.21-1.56-1.85,.41-3.45,1.7-4.43,3.33-.98,1.63-1.38,3.56-1.35,5.46Zm6.04-3.87c2.05-2,5.37,1.26,4.92,3.55-.24,1.21-1.48,2.09-2.71,2.1-2.89,.03-4.23-3.68-2.2-5.65Z"/>
      <path class="cls-1" d="M78.7,40.19c.53-1.05,1.75-1.74,2.91-1.56s2.14,1.3,2.06,2.47c-.05,.77-.46,1.64,.03,2.24,.62,.75,1.86,.12,2.79,.41,.73,.23,1.16,1.07,1.04,1.83s-.73,1.38-1.45,1.65c-.63,.24-1.37,.25-1.92,.65-.84,.61-.89,1.81-.85,2.85,.04,1.29,.2,2.8,1.31,3.47,.66,.4,1.51,.38,2.13,.84,.76,.56,.9,1.73,.45,2.56s-1.37,1.34-2.3,1.49c-1.67,.27-3.41-.49-4.56-1.74s-1.75-2.92-1.95-4.61-.02-3.39,.22-5.06c-1.23,.37-2.68-.68-2.71-1.96-.03-1.49,1.21-1.6,2.12-2.29s.14-2.19,.67-3.23Z"/>
      <path class="cls-1" d="M33.98,52.09c1.22,.03,2.44,.06,3.66,.09,1,.03,2.13,0,2.81-.73,.66-.71,.63-1.83,.35-2.76-.68-2.29-2.62-4.14-4.92-4.78-2.3-.64-4.88-.08-6.76,1.4-1.87,1.48-3.01,3.83-3.09,6.21-.06,1.92,.55,3.86,1.79,5.33s3.1,2.4,5.02,2.42c2.1,.01,4.06-1.03,5.8-2.21,.78-.53,1.62-1.29,1.48-2.22-.13-.85-1.11-1.37-1.97-1.3-1.88,.15-3.21,2.04-5.25,1.6-.96-.21-1.79-1.3-1.34-2.18,.41-.81,1.51-.89,2.42-.87Zm-2.81-1.91c-1.84-.84,1.52-2.99,2.5-2.99,.65,0,1.32,.23,1.73,.73,.41,.5,.48,1.3,.06,1.79-.43,.49-1.16,.55-1.81,.57-.49,.01-.99,.03-1.48,.04-.34,0-.69,.02-1-.13Z"/>
      <path class="cls-1" d="M52.07,46.83c-.98-1.63-2.58-2.92-4.43-3.33-1.85-.41-3.94,.14-5.21,1.56,.16-1.06,.31-2.13,.21-3.19,0-1.64-1.17-3.3-2.78-3.66-3.02-.67-2.37,3.23-2.37,5.08,.01,3.77,.02,7.54,.03,11.31,0,1,0,2.01,.34,2.95,.34,.94,1.07,1.79,2.04,2,1.37,.28,2.82-1.08,2.61-2.46,1.2,1.51,3.16,2.37,5.08,2.25,1.92-.12,3.75-1.24,4.75-2.88,.75-1.24,1.03-2.72,1.05-4.17,.03-1.9-.37-3.83-1.35-5.46Zm-6.9,7.24c-1.24-.01-2.47-.89-2.71-2.1-.46-2.29,2.86-5.55,4.92-3.55,2.02,1.97,.69,5.68-2.2,5.65Z"/>
    </g>
  </g>
</svg>